<mxfile host="app.diagrams.net" modified="2024-03-07T16:35:18.845Z" agent="Mozilla/5.0 (Windows NT 10.0; Win64; x64) AppleWebKit/537.36 (KHTML, like Gecko) Chrome/121.0.0.0 Safari/537.36 Edg/121.0.0.0" etag="16CRvjO_6TiSaRnOS8Ey" version="24.0.2" type="device">
  <diagram id="C5RBs43oDa-KdzZeNtuy" name="Page-1">
    <mxGraphModel dx="1703" dy="848" grid="1" gridSize="10" guides="1" tooltips="1" connect="1" arrows="1" fold="1" page="1" pageScale="1" pageWidth="827" pageHeight="1169" math="0" shadow="0">
      <root>
        <mxCell id="WIyWlLk6GJQsqaUBKTNV-0" />
        <mxCell id="WIyWlLk6GJQsqaUBKTNV-1" parent="WIyWlLk6GJQsqaUBKTNV-0" />
        <mxCell id="B-JvRNYnu4CM49zrLITP-0" value="Continent" style="swimlane;fontStyle=1;align=center;verticalAlign=top;childLayout=stackLayout;horizontal=1;startSize=26;horizontalStack=0;resizeParent=1;resizeParentMax=0;resizeLast=0;collapsible=1;marginBottom=0;whiteSpace=wrap;html=1;labelBackgroundColor=none;fillColor=#FAE5C7;strokeColor=#0F8B8D;fontColor=#143642;" vertex="1" parent="WIyWlLk6GJQsqaUBKTNV-1">
          <mxGeometry x="10" y="280" width="160" height="120" as="geometry">
            <mxRectangle x="80" y="283" width="90" height="30" as="alternateBounds" />
          </mxGeometry>
        </mxCell>
        <mxCell id="B-JvRNYnu4CM49zrLITP-1" value="- name: String&lt;div&gt;- population: int&lt;/div&gt;" style="text;strokeColor=none;fillColor=none;align=left;verticalAlign=top;spacingLeft=4;spacingRight=4;overflow=hidden;rotatable=0;points=[[0,0.5],[1,0.5]];portConstraint=eastwest;whiteSpace=wrap;html=1;fontStyle=1;labelBackgroundColor=none;fontColor=#143642;" vertex="1" parent="B-JvRNYnu4CM49zrLITP-0">
          <mxGeometry y="26" width="160" height="44" as="geometry" />
        </mxCell>
        <mxCell id="B-JvRNYnu4CM49zrLITP-2" value="" style="line;strokeWidth=1;fillColor=none;align=left;verticalAlign=middle;spacingTop=-1;spacingLeft=3;spacingRight=3;rotatable=0;labelPosition=right;points=[];portConstraint=eastwest;fontStyle=1;labelBackgroundColor=none;strokeColor=#0F8B8D;fontColor=#143642;" vertex="1" parent="B-JvRNYnu4CM49zrLITP-0">
          <mxGeometry y="70" width="160" height="8" as="geometry" />
        </mxCell>
        <mxCell id="B-JvRNYnu4CM49zrLITP-3" value="+ getName(): String&lt;div&gt;+ getPopulation(): int&lt;/div&gt;" style="text;strokeColor=none;fillColor=none;align=left;verticalAlign=top;spacingLeft=4;spacingRight=4;overflow=hidden;rotatable=0;points=[[0,0.5],[1,0.5]];portConstraint=eastwest;whiteSpace=wrap;html=1;fontStyle=1;labelBackgroundColor=none;fontColor=#143642;" vertex="1" parent="B-JvRNYnu4CM49zrLITP-0">
          <mxGeometry y="78" width="160" height="42" as="geometry" />
        </mxCell>
        <mxCell id="B-JvRNYnu4CM49zrLITP-4" value="Population" style="swimlane;fontStyle=1;align=center;verticalAlign=top;childLayout=stackLayout;horizontal=1;startSize=26;horizontalStack=0;resizeParent=1;resizeParentMax=0;resizeLast=0;collapsible=1;marginBottom=0;whiteSpace=wrap;html=1;labelBackgroundColor=none;fillColor=#FAE5C7;strokeColor=#0F8B8D;fontColor=#143642;" vertex="1" parent="WIyWlLk6GJQsqaUBKTNV-1">
          <mxGeometry x="690" y="180" width="240" height="150" as="geometry">
            <mxRectangle x="690" y="180" width="100" height="30" as="alternateBounds" />
          </mxGeometry>
        </mxCell>
        <mxCell id="B-JvRNYnu4CM49zrLITP-5" value="- TotalPopulation: int&lt;div&gt;- Population_living_in_cities: int&lt;/div&gt;&lt;div&gt;- Population_not_living_in_cities: int&lt;/div&gt;" style="text;strokeColor=none;fillColor=none;align=left;verticalAlign=top;spacingLeft=4;spacingRight=4;overflow=hidden;rotatable=0;points=[[0,0.5],[1,0.5]];portConstraint=eastwest;whiteSpace=wrap;html=1;fontStyle=1;labelBackgroundColor=none;fontColor=#143642;" vertex="1" parent="B-JvRNYnu4CM49zrLITP-4">
          <mxGeometry y="26" width="240" height="54" as="geometry" />
        </mxCell>
        <mxCell id="B-JvRNYnu4CM49zrLITP-6" value="" style="line;strokeWidth=1;fillColor=none;align=left;verticalAlign=middle;spacingTop=-1;spacingLeft=3;spacingRight=3;rotatable=0;labelPosition=right;points=[];portConstraint=eastwest;fontStyle=1;labelBackgroundColor=none;strokeColor=#0F8B8D;fontColor=#143642;" vertex="1" parent="B-JvRNYnu4CM49zrLITP-4">
          <mxGeometry y="80" width="240" height="8" as="geometry" />
        </mxCell>
        <mxCell id="B-JvRNYnu4CM49zrLITP-7" value="&lt;div&gt;+ getTotalPopulation(): int&lt;/div&gt;+ getPopulation_living_in_cities(): int&lt;div&gt;+ getPopulation_not_living_in_cities(): int&lt;/div&gt;&lt;div&gt;&lt;br&gt;&lt;/div&gt;" style="text;strokeColor=none;fillColor=none;align=left;verticalAlign=top;spacingLeft=4;spacingRight=4;overflow=hidden;rotatable=0;points=[[0,0.5],[1,0.5]];portConstraint=eastwest;whiteSpace=wrap;html=1;fontStyle=1;labelBackgroundColor=none;fontColor=#143642;" vertex="1" parent="B-JvRNYnu4CM49zrLITP-4">
          <mxGeometry y="88" width="240" height="62" as="geometry" />
        </mxCell>
        <mxCell id="B-JvRNYnu4CM49zrLITP-8" value="Language" style="swimlane;fontStyle=1;align=center;verticalAlign=top;childLayout=stackLayout;horizontal=1;startSize=26;horizontalStack=0;resizeParent=1;resizeParentMax=0;resizeLast=0;collapsible=1;marginBottom=0;whiteSpace=wrap;html=1;labelBackgroundColor=none;fillColor=#FAE5C7;strokeColor=#0F8B8D;fontColor=#143642;" vertex="1" parent="WIyWlLk6GJQsqaUBKTNV-1">
          <mxGeometry x="340" y="600" width="160" height="140" as="geometry">
            <mxRectangle x="374" y="585" width="90" height="30" as="alternateBounds" />
          </mxGeometry>
        </mxCell>
        <mxCell id="B-JvRNYnu4CM49zrLITP-9" value="- name: String&lt;div&gt;- population: int&lt;/div&gt;&lt;div&gt;- percentage: float&lt;/div&gt;" style="text;strokeColor=none;fillColor=none;align=left;verticalAlign=top;spacingLeft=4;spacingRight=4;overflow=hidden;rotatable=0;points=[[0,0.5],[1,0.5]];portConstraint=eastwest;whiteSpace=wrap;html=1;fontStyle=1;labelBackgroundColor=none;fontColor=#143642;" vertex="1" parent="B-JvRNYnu4CM49zrLITP-8">
          <mxGeometry y="26" width="160" height="54" as="geometry" />
        </mxCell>
        <mxCell id="B-JvRNYnu4CM49zrLITP-10" value="" style="line;strokeWidth=1;fillColor=none;align=left;verticalAlign=middle;spacingTop=-1;spacingLeft=3;spacingRight=3;rotatable=0;labelPosition=right;points=[];portConstraint=eastwest;fontStyle=1;labelBackgroundColor=none;strokeColor=#0F8B8D;fontColor=#143642;" vertex="1" parent="B-JvRNYnu4CM49zrLITP-8">
          <mxGeometry y="80" width="160" height="8" as="geometry" />
        </mxCell>
        <mxCell id="B-JvRNYnu4CM49zrLITP-11" value="+ getName(): String&lt;div&gt;+ getPopulation(): int&lt;/div&gt;&lt;div&gt;+ getPercentage(): float&lt;/div&gt;" style="text;strokeColor=none;fillColor=none;align=left;verticalAlign=top;spacingLeft=4;spacingRight=4;overflow=hidden;rotatable=0;points=[[0,0.5],[1,0.5]];portConstraint=eastwest;whiteSpace=wrap;html=1;fontStyle=1;labelBackgroundColor=none;fontColor=#143642;" vertex="1" parent="B-JvRNYnu4CM49zrLITP-8">
          <mxGeometry y="88" width="160" height="52" as="geometry" />
        </mxCell>
        <mxCell id="B-JvRNYnu4CM49zrLITP-12" value="Region" style="swimlane;fontStyle=1;align=center;verticalAlign=top;childLayout=stackLayout;horizontal=1;startSize=26;horizontalStack=0;resizeParent=1;resizeParentMax=0;resizeLast=0;collapsible=1;marginBottom=0;whiteSpace=wrap;html=1;labelBackgroundColor=none;fillColor=#FAE5C7;strokeColor=#0F8B8D;fontColor=#143642;" vertex="1" parent="WIyWlLk6GJQsqaUBKTNV-1">
          <mxGeometry x="120" y="450" width="160" height="150" as="geometry">
            <mxRectangle x="120" y="450" width="80" height="30" as="alternateBounds" />
          </mxGeometry>
        </mxCell>
        <mxCell id="B-JvRNYnu4CM49zrLITP-13" value="- name: String&lt;div&gt;- population: int&lt;/div&gt;&lt;div&gt;- continent: Continent&lt;/div&gt;" style="text;strokeColor=none;fillColor=none;align=left;verticalAlign=top;spacingLeft=4;spacingRight=4;overflow=hidden;rotatable=0;points=[[0,0.5],[1,0.5]];portConstraint=eastwest;whiteSpace=wrap;html=1;fontStyle=1;labelBackgroundColor=none;fontColor=#143642;" vertex="1" parent="B-JvRNYnu4CM49zrLITP-12">
          <mxGeometry y="26" width="160" height="54" as="geometry" />
        </mxCell>
        <mxCell id="B-JvRNYnu4CM49zrLITP-14" value="" style="line;strokeWidth=1;fillColor=none;align=left;verticalAlign=middle;spacingTop=-1;spacingLeft=3;spacingRight=3;rotatable=0;labelPosition=right;points=[];portConstraint=eastwest;fontStyle=1;labelBackgroundColor=none;strokeColor=#0F8B8D;fontColor=#143642;" vertex="1" parent="B-JvRNYnu4CM49zrLITP-12">
          <mxGeometry y="80" width="160" height="8" as="geometry" />
        </mxCell>
        <mxCell id="B-JvRNYnu4CM49zrLITP-15" value="+ getName(): String&lt;div&gt;+ getPopulation(): int&lt;/div&gt;&lt;div&gt;getContinent(): Continent&lt;/div&gt;" style="text;strokeColor=none;fillColor=none;align=left;verticalAlign=top;spacingLeft=4;spacingRight=4;overflow=hidden;rotatable=0;points=[[0,0.5],[1,0.5]];portConstraint=eastwest;whiteSpace=wrap;html=1;fontStyle=1;labelBackgroundColor=none;fontColor=#143642;" vertex="1" parent="B-JvRNYnu4CM49zrLITP-12">
          <mxGeometry y="88" width="160" height="62" as="geometry" />
        </mxCell>
        <mxCell id="B-JvRNYnu4CM49zrLITP-16" value="Country" style="swimlane;fontStyle=1;align=center;verticalAlign=top;childLayout=stackLayout;horizontal=1;startSize=26;horizontalStack=0;resizeParent=1;resizeParentMax=0;resizeLast=0;collapsible=1;marginBottom=0;whiteSpace=wrap;html=1;labelBackgroundColor=none;fillColor=#FAE5C7;strokeColor=#0F8B8D;fontColor=#143642;" vertex="1" parent="WIyWlLk6GJQsqaUBKTNV-1">
          <mxGeometry x="374" y="220" width="180" height="260" as="geometry">
            <mxRectangle x="374" y="220" width="80" height="30" as="alternateBounds" />
          </mxGeometry>
        </mxCell>
        <mxCell id="B-JvRNYnu4CM49zrLITP-17" value="- id: string&lt;div&gt;- name: String&lt;/div&gt;&lt;div&gt;- continent: String&lt;/div&gt;&lt;div&gt;- region: string&lt;/div&gt;&lt;div&gt;- population: int&lt;/div&gt;&lt;div&gt;- capital: City&lt;/div&gt;" style="text;strokeColor=none;fillColor=none;align=left;verticalAlign=top;spacingLeft=4;spacingRight=4;overflow=hidden;rotatable=0;points=[[0,0.5],[1,0.5]];portConstraint=eastwest;whiteSpace=wrap;html=1;fontStyle=1;labelBackgroundColor=none;fontColor=#143642;" vertex="1" parent="B-JvRNYnu4CM49zrLITP-16">
          <mxGeometry y="26" width="180" height="104" as="geometry" />
        </mxCell>
        <mxCell id="B-JvRNYnu4CM49zrLITP-18" value="" style="line;strokeWidth=1;fillColor=none;align=left;verticalAlign=middle;spacingTop=-1;spacingLeft=3;spacingRight=3;rotatable=0;labelPosition=right;points=[];portConstraint=eastwest;fontStyle=1;labelBackgroundColor=none;strokeColor=#0F8B8D;fontColor=#143642;" vertex="1" parent="B-JvRNYnu4CM49zrLITP-16">
          <mxGeometry y="130" width="180" height="8" as="geometry" />
        </mxCell>
        <mxCell id="B-JvRNYnu4CM49zrLITP-19" value="+ getid(): String&lt;div&gt;+ getName(): String&lt;/div&gt;&lt;div&gt;+ getContinent(): String&lt;/div&gt;&lt;div&gt;+ getRegion(): String&lt;/div&gt;&lt;div&gt;+ getPopulation(): int&lt;/div&gt;&lt;div&gt;+ getCapital(): City&lt;/div&gt;" style="text;strokeColor=none;fillColor=none;align=left;verticalAlign=top;spacingLeft=4;spacingRight=4;overflow=hidden;rotatable=0;points=[[0,0.5],[1,0.5]];portConstraint=eastwest;whiteSpace=wrap;html=1;fontStyle=1;labelBackgroundColor=none;fontColor=#143642;" vertex="1" parent="B-JvRNYnu4CM49zrLITP-16">
          <mxGeometry y="138" width="180" height="122" as="geometry" />
        </mxCell>
        <mxCell id="B-JvRNYnu4CM49zrLITP-20" value="City" style="swimlane;fontStyle=1;align=center;verticalAlign=top;childLayout=stackLayout;horizontal=1;startSize=26;horizontalStack=0;resizeParent=1;resizeParentMax=0;resizeLast=0;collapsible=1;marginBottom=0;whiteSpace=wrap;html=1;labelBackgroundColor=none;fillColor=#FAE5C7;strokeColor=#0F8B8D;fontColor=#143642;" vertex="1" parent="WIyWlLk6GJQsqaUBKTNV-1">
          <mxGeometry x="580" y="540" width="160" height="180" as="geometry">
            <mxRectangle x="580" y="435" width="60" height="30" as="alternateBounds" />
          </mxGeometry>
        </mxCell>
        <mxCell id="B-JvRNYnu4CM49zrLITP-21" value="- name: String&lt;div&gt;- population: int&lt;/div&gt;&lt;div&gt;- country: Country&lt;/div&gt;&lt;div&gt;- district: String&lt;/div&gt;" style="text;strokeColor=none;fillColor=none;align=left;verticalAlign=top;spacingLeft=4;spacingRight=4;overflow=hidden;rotatable=0;points=[[0,0.5],[1,0.5]];portConstraint=eastwest;whiteSpace=wrap;html=1;fontStyle=1;labelBackgroundColor=none;fontColor=#143642;" vertex="1" parent="B-JvRNYnu4CM49zrLITP-20">
          <mxGeometry y="26" width="160" height="74" as="geometry" />
        </mxCell>
        <mxCell id="B-JvRNYnu4CM49zrLITP-22" value="" style="line;strokeWidth=1;fillColor=none;align=left;verticalAlign=middle;spacingTop=-1;spacingLeft=3;spacingRight=3;rotatable=0;labelPosition=right;points=[];portConstraint=eastwest;fontStyle=1;labelBackgroundColor=none;strokeColor=#0F8B8D;fontColor=#143642;" vertex="1" parent="B-JvRNYnu4CM49zrLITP-20">
          <mxGeometry y="100" width="160" height="8" as="geometry" />
        </mxCell>
        <mxCell id="B-JvRNYnu4CM49zrLITP-23" value="+ getName(): String&lt;div&gt;+ getPopulation(): int&lt;/div&gt;&lt;div&gt;+ getCountry(): Country&lt;/div&gt;&lt;div&gt;+ getDistrict(): String&lt;/div&gt;" style="text;strokeColor=none;fillColor=none;align=left;verticalAlign=top;spacingLeft=4;spacingRight=4;overflow=hidden;rotatable=0;points=[[0,0.5],[1,0.5]];portConstraint=eastwest;whiteSpace=wrap;html=1;fontStyle=1;labelBackgroundColor=none;fontColor=#143642;" vertex="1" parent="B-JvRNYnu4CM49zrLITP-20">
          <mxGeometry y="108" width="160" height="72" as="geometry" />
        </mxCell>
        <mxCell id="B-JvRNYnu4CM49zrLITP-31" value="" style="endArrow=open;html=1;endSize=12;startArrow=diamondThin;startSize=14;startFill=1;edgeStyle=orthogonalEdgeStyle;align=left;verticalAlign=bottom;rounded=0;exitX=1;exitY=0.5;exitDx=0;exitDy=0;entryX=0;entryY=0.5;entryDx=0;entryDy=0;fontStyle=1;labelBackgroundColor=none;fontColor=default;strokeColor=#A8201A;" edge="1" parent="WIyWlLk6GJQsqaUBKTNV-1" source="B-JvRNYnu4CM49zrLITP-16" target="B-JvRNYnu4CM49zrLITP-4">
          <mxGeometry x="-1" y="3" relative="1" as="geometry">
            <mxPoint x="390" y="410" as="sourcePoint" />
            <mxPoint x="550" y="410" as="targetPoint" />
          </mxGeometry>
        </mxCell>
        <mxCell id="B-JvRNYnu4CM49zrLITP-37" value="n" style="edgeLabel;html=1;align=center;verticalAlign=middle;resizable=0;points=[];fontStyle=1;labelBackgroundColor=none;fontColor=#143642;" vertex="1" connectable="0" parent="B-JvRNYnu4CM49zrLITP-31">
          <mxGeometry x="0.7626" y="1" relative="1" as="geometry">
            <mxPoint as="offset" />
          </mxGeometry>
        </mxCell>
        <mxCell id="B-JvRNYnu4CM49zrLITP-50" value="1" style="edgeLabel;html=1;align=center;verticalAlign=middle;resizable=0;points=[];fontStyle=1;labelBackgroundColor=none;fontColor=#143642;" vertex="1" connectable="0" parent="B-JvRNYnu4CM49zrLITP-31">
          <mxGeometry x="-0.7384" y="-1" relative="1" as="geometry">
            <mxPoint as="offset" />
          </mxGeometry>
        </mxCell>
        <mxCell id="B-JvRNYnu4CM49zrLITP-32" value="" style="endArrow=open;html=1;endSize=12;startArrow=diamondThin;startSize=14;startFill=1;edgeStyle=orthogonalEdgeStyle;align=left;verticalAlign=bottom;rounded=0;exitX=0.5;exitY=1;exitDx=0;exitDy=0;entryX=0.5;entryY=0;entryDx=0;entryDy=0;fontStyle=1;labelBackgroundColor=none;fontColor=default;strokeColor=#A8201A;" edge="1" parent="WIyWlLk6GJQsqaUBKTNV-1" source="B-JvRNYnu4CM49zrLITP-16" target="B-JvRNYnu4CM49zrLITP-20">
          <mxGeometry x="-1" y="3" relative="1" as="geometry">
            <mxPoint x="390" y="410" as="sourcePoint" />
            <mxPoint x="550" y="410" as="targetPoint" />
          </mxGeometry>
        </mxCell>
        <mxCell id="B-JvRNYnu4CM49zrLITP-42" value="n" style="edgeLabel;html=1;align=center;verticalAlign=middle;resizable=0;points=[];fontStyle=1;labelBackgroundColor=none;fontColor=#143642;" vertex="1" connectable="0" parent="B-JvRNYnu4CM49zrLITP-32">
          <mxGeometry x="0.8294" y="1" relative="1" as="geometry">
            <mxPoint as="offset" />
          </mxGeometry>
        </mxCell>
        <mxCell id="B-JvRNYnu4CM49zrLITP-49" value="1" style="edgeLabel;html=1;align=center;verticalAlign=middle;resizable=0;points=[];fontStyle=1;labelBackgroundColor=none;fontColor=#143642;" vertex="1" connectable="0" parent="B-JvRNYnu4CM49zrLITP-32">
          <mxGeometry x="-0.8158" relative="1" as="geometry">
            <mxPoint as="offset" />
          </mxGeometry>
        </mxCell>
        <mxCell id="B-JvRNYnu4CM49zrLITP-34" value="" style="endArrow=open;html=1;endSize=12;startArrow=diamondThin;startSize=14;startFill=1;edgeStyle=orthogonalEdgeStyle;align=left;verticalAlign=bottom;rounded=0;exitX=0.004;exitY=0.041;exitDx=0;exitDy=0;exitPerimeter=0;entryX=1;entryY=0.5;entryDx=0;entryDy=0;fontStyle=1;labelBackgroundColor=none;fontColor=default;strokeColor=#A8201A;" edge="1" parent="WIyWlLk6GJQsqaUBKTNV-1" source="B-JvRNYnu4CM49zrLITP-19" target="B-JvRNYnu4CM49zrLITP-12">
          <mxGeometry x="-1" y="3" relative="1" as="geometry">
            <mxPoint x="260" y="410" as="sourcePoint" />
            <mxPoint x="420" y="410" as="targetPoint" />
          </mxGeometry>
        </mxCell>
        <mxCell id="B-JvRNYnu4CM49zrLITP-47" value="n" style="edgeLabel;html=1;align=center;verticalAlign=middle;resizable=0;points=[];fontStyle=1;labelBackgroundColor=none;fontColor=#143642;" vertex="1" connectable="0" parent="B-JvRNYnu4CM49zrLITP-34">
          <mxGeometry x="0.8125" y="1" relative="1" as="geometry">
            <mxPoint as="offset" />
          </mxGeometry>
        </mxCell>
        <mxCell id="B-JvRNYnu4CM49zrLITP-48" value="1" style="edgeLabel;html=1;align=center;verticalAlign=middle;resizable=0;points=[];fontStyle=1;labelBackgroundColor=none;fontColor=#143642;" vertex="1" connectable="0" parent="B-JvRNYnu4CM49zrLITP-34">
          <mxGeometry x="-0.7522" y="4" relative="1" as="geometry">
            <mxPoint y="-7" as="offset" />
          </mxGeometry>
        </mxCell>
        <mxCell id="B-JvRNYnu4CM49zrLITP-35" value="" style="endArrow=diamondThin;endFill=1;endSize=24;html=1;rounded=0;exitX=1;exitY=0.5;exitDx=0;exitDy=0;entryX=0.419;entryY=0.98;entryDx=0;entryDy=0;entryPerimeter=0;edgeStyle=orthogonalEdgeStyle;fontStyle=1;labelBackgroundColor=none;fontColor=default;strokeColor=#A8201A;" edge="1" parent="WIyWlLk6GJQsqaUBKTNV-1" target="B-JvRNYnu4CM49zrLITP-7">
          <mxGeometry width="160" relative="1" as="geometry">
            <mxPoint x="740" y="639.09" as="sourcePoint" />
            <mxPoint x="811.9200000000001" y="369.996" as="targetPoint" />
            <Array as="points">
              <mxPoint x="750" y="639" />
              <mxPoint x="750" y="484" />
              <mxPoint x="791" y="484" />
            </Array>
          </mxGeometry>
        </mxCell>
        <mxCell id="B-JvRNYnu4CM49zrLITP-38" value="1" style="edgeLabel;html=1;align=center;verticalAlign=middle;resizable=0;points=[];fontStyle=1;labelBackgroundColor=none;fontColor=#143642;" vertex="1" connectable="0" parent="B-JvRNYnu4CM49zrLITP-35">
          <mxGeometry x="-0.9571" relative="1" as="geometry">
            <mxPoint as="offset" />
          </mxGeometry>
        </mxCell>
        <mxCell id="B-JvRNYnu4CM49zrLITP-43" value="n" style="edgeLabel;html=1;align=center;verticalAlign=middle;resizable=0;points=[];fontStyle=1;labelBackgroundColor=none;fontColor=#143642;" vertex="1" connectable="0" parent="B-JvRNYnu4CM49zrLITP-35">
          <mxGeometry x="0.7808" relative="1" as="geometry">
            <mxPoint as="offset" />
          </mxGeometry>
        </mxCell>
        <mxCell id="B-JvRNYnu4CM49zrLITP-39" value="" style="endArrow=diamondThin;endFill=1;endSize=24;html=1;rounded=0;exitX=0.5;exitY=0;exitDx=0;exitDy=0;entryX=0.25;entryY=1;entryDx=0;entryDy=0;entryPerimeter=0;fontStyle=1;labelBackgroundColor=none;fontColor=default;strokeColor=#A8201A;" edge="1" parent="WIyWlLk6GJQsqaUBKTNV-1" source="B-JvRNYnu4CM49zrLITP-8" target="B-JvRNYnu4CM49zrLITP-19">
          <mxGeometry width="160" relative="1" as="geometry">
            <mxPoint x="360" y="470" as="sourcePoint" />
            <mxPoint x="520" y="470" as="targetPoint" />
          </mxGeometry>
        </mxCell>
        <mxCell id="B-JvRNYnu4CM49zrLITP-40" value="n" style="edgeLabel;html=1;align=center;verticalAlign=middle;resizable=0;points=[];fontStyle=1;labelBackgroundColor=none;fontColor=#143642;" vertex="1" connectable="0" parent="B-JvRNYnu4CM49zrLITP-39">
          <mxGeometry x="-0.6367" y="2" relative="1" as="geometry">
            <mxPoint x="3" y="4" as="offset" />
          </mxGeometry>
        </mxCell>
        <mxCell id="B-JvRNYnu4CM49zrLITP-41" value="1" style="edgeLabel;html=1;align=center;verticalAlign=middle;resizable=0;points=[];fontStyle=1;labelBackgroundColor=none;fontColor=#143642;" vertex="1" connectable="0" parent="B-JvRNYnu4CM49zrLITP-39">
          <mxGeometry x="0.2945" y="1" relative="1" as="geometry">
            <mxPoint as="offset" />
          </mxGeometry>
        </mxCell>
        <mxCell id="B-JvRNYnu4CM49zrLITP-44" value="" style="endArrow=diamondThin;endFill=1;endSize=24;html=1;rounded=0;entryX=0;entryY=0.5;entryDx=0;entryDy=0;fontStyle=1;labelBackgroundColor=none;fontColor=default;strokeColor=#A8201A;" edge="1" parent="WIyWlLk6GJQsqaUBKTNV-1" target="B-JvRNYnu4CM49zrLITP-17">
          <mxGeometry width="160" relative="1" as="geometry">
            <mxPoint x="170" y="297.47" as="sourcePoint" />
            <mxPoint x="330" y="297.47" as="targetPoint" />
          </mxGeometry>
        </mxCell>
        <mxCell id="B-JvRNYnu4CM49zrLITP-45" value="1" style="edgeLabel;html=1;align=center;verticalAlign=middle;resizable=0;points=[];fontStyle=1;labelBackgroundColor=none;fontColor=#143642;" vertex="1" connectable="0" parent="B-JvRNYnu4CM49zrLITP-44">
          <mxGeometry x="-0.807" y="-2" relative="1" as="geometry">
            <mxPoint as="offset" />
          </mxGeometry>
        </mxCell>
        <mxCell id="B-JvRNYnu4CM49zrLITP-46" value="n" style="edgeLabel;html=1;align=center;verticalAlign=middle;resizable=0;points=[];fontStyle=1;labelBackgroundColor=none;fontColor=#143642;" vertex="1" connectable="0" parent="B-JvRNYnu4CM49zrLITP-44">
          <mxGeometry x="0.6171" relative="1" as="geometry">
            <mxPoint as="offset" />
          </mxGeometry>
        </mxCell>
      </root>
    </mxGraphModel>
  </diagram>
</mxfile>
